<svg width="256" height="256" viewBox="0 0 256 256" fill="none" xmlns="http://www.w3.org/2000/svg">
<path fill-rule="evenodd" clip-rule="evenodd" d="M0 127.999C0 60.1125 52.8485 4.56939 119.648 0.26709C118.758 4.55003 118.312 9.04361 118.312 13.7478C118.312 29.9197 123.781 43.0057 134.719 53.0057C145.656 63.0057 160.5 70.701 179.25 76.0916L208.781 84.5291C217.219 86.8728 225.07 89.6072 232.336 92.7322C239.602 95.8572 245.461 99.9197 249.914 104.92C252.43 107.744 254.235 111.042 255.329 114.814C255.773 119.149 256 123.547 256 127.999C256 129.231 255.983 130.46 255.948 131.684C254.889 137.456 252.526 142.675 248.859 147.342C243.703 153.826 236.711 158.904 227.883 162.576C219.055 166.17 209.094 167.967 198 167.967C188.469 167.967 179.562 166.56 171.281 163.748C163.078 160.857 156.281 156.482 150.891 150.623C145.884 145.027 142.89 138.044 141.908 129.673C141.969 129.123 142 128.564 142 127.998C142 119.714 135.284 112.998 127 112.998C118.716 112.998 112 119.714 112 127.998C112 128.04 112 128.081 112.001 128.123H111.75C112.688 141.248 116.711 152.771 123.82 162.693C131.008 172.615 140.852 180.349 153.352 185.896C165.93 191.443 180.812 194.217 198 194.217C215.019 194.217 229.675 191.587 241.967 186.329C220.754 227.693 177.683 255.999 128 255.999C57.3076 255.999 0 198.691 0 127.999ZM148.05 1.56019C187.823 7.81714 221.514 32.3905 240.216 66.3743C239.507 66.0887 238.794 65.8122 238.078 65.5447C230.422 62.6541 223.469 60.3885 217.219 58.7478L192.844 52.1853C188.391 51.0135 183.508 49.49 178.195 47.615C172.883 45.6619 167.805 43.201 162.961 40.2322C158.117 37.1853 154.133 33.3963 151.008 28.865C147.961 24.2556 146.438 18.7478 146.438 12.3416C146.438 8.5462 146.975 4.95241 148.05 1.56019Z" fill="#A955F7"/>
</svg>
